# xmcd
#
# Track frame offsets:
#	150
#	16006
#	29764
#	47274
#	62881
#	79356
#	98239
#	110451
#	125053
#	139232
#	154918
#	173288
#	191154
#	208003
#	223673
#	237294
#	253579
#	267392
#	284155
#	297666
#	311465
#
# Disc length: 4369
#
# Revision: 1
# Processed by: cddbd v1.5.1PL0 Copyright (c) Steve Scherf et al.
# Submitted via: dBpowerAMP V4.0
# Normalized: r0:TDELIM( - )
#
DISCID=45110f15
DTITLE=Various Artist - Country Favorites
DYEAR=1900
DGENRE=Country
TTITLE0=Toby Keith - Should've Been a Cowboy
TTITLE1=Tim McGraw - Barbeque Stain
TTITLE2=Blake Shelton - Austin
TTITLE3=Jo Dee Messina - Heads Carolina, Tails California
TTITLE4=Toby Keith - Country Comes to Town
TTITLE5=Keith Urban - Your Everything
TTITLE6=Toby Keith - All Things Considered
TTITLE7=Diamond Rio - Meet in the Middle
TTITLE8=Reba McEntire - I'm a Survivor
TTITLE9=Toby Keith - My Maria
TTITLE10=Tim McGraw - One Boy, One Girl
TTITLE11=Jamie O'Neal - There is No Arizona
TTITLE12=Tim McGraw - Dust on the Bottle
TTITLE13=Toby Keith - How Do You Like Me Now
TTITLE14=Trace Adkins - Every Light is On
TTITLE15=Tim McGraw - My Next Thirty Years
TTITLE16=Geroge Jones and Garth Brooks - Beer Run
TTITLE17=Toby Keith - You Shouldn't Kiss Me Like This
TTITLE18=Keith Urban - Where the Blacktop Ends
TTITLE19=Toby Keith - I Wanna Talk About Me
TTITLE20=Diamond Rio - One More Day
EXTD=
EXTT0=
EXTT1=
EXTT2=
EXTT3=
EXTT4=
EXTT5=
EXTT6=
EXTT7=
EXTT8=
EXTT9=
EXTT10=
EXTT11=
EXTT12=
EXTT13=
EXTT14=
EXTT15=
EXTT16=
EXTT17=
EXTT18=
EXTT19=
EXTT20=
PLAYORDER=
